# xmcd
#
# Track frame offsets:
#	183
#	14873
#	27830
#	44955
#	56025
#	72388
#	84040
#	113193
#	132920
#	149525
#	163353
#	179210
#	205200
#	222635
#	235025
#	248220
#	264703
#	282670
#	296610
#	313680
#
# Disc length: 4344
#
# Revision: 1
# Processed by: cddbd v1.5.1PL0 Copyright (c) Steve Scherf et al.
# Submitted via: CDex 1.50beta9
# Normalized: r0:TDELIM( - )
#
DISCID=5210f614
DTITLE=Various Artist - Cool Jazz 2
DYEAR=1995
DGENRE=Jazz
TTITLE0=Sarah Vaughan - Lover Man
TTITLE1=Billie Holiday - That Ole Devil Called Love
TTITLE2=Lena Horne - September Song
TTITLE3=Frank Sinatra - Night And Day
TTITLE4=Maria Muldaur - Midnight At The Oasis
TTITLE5=Erroll Garner - I Can't Believe That You're In Love With Me
TTITLE6=Maurizio Giamarco Quartet - Voce Vai Ver
TTITLE7=Astrud Gilberto - Far Away
TTITLE8=Eydie Gorme - God Bless The Child
TTITLE9=Irma Thomas - I've Been Lovin' You Too Long
TTITLE10=Charlie Parker - I Get A Kick Out Of You
TTITLE11=Dizzy Gillespie - I Let A Song Go Out Of My Heart
TTITLE12=Ella Fitzgerald - April In Paris
TTITLE13=Dinah Washington - Teach Me Tonight
TTITLE14=Nat King Cole - Sweet Lorraine
TTITLE15=Django Reinhardt - Confessin'
TTITLE16=Count Basie - Makin' Whoopee
TTITLE17=Peggy Lee - Ask Anyone Who Know
TTITLE18=Brook Benton - Rainy Night In Georgia
TTITLE19=Sam Cooke - You Send Me
EXTD=YEAR: 1995
EXTT0=
EXTT1=
EXTT2=
EXTT3=
EXTT4=
EXTT5=
EXTT6=
EXTT7=
EXTT8=
EXTT9=
EXTT10=
EXTT11=
EXTT12=
EXTT13=
EXTT14=
EXTT15=
EXTT16=
EXTT17=
EXTT18=
EXTT19=
PLAYORDER=
